<svg width="297" height="77" viewBox="0 0 297 77" fill="none" xmlns="http://www.w3.org/2000/svg">
<path d="M14.5 51.85C12.1667 51.85 10.1 51.5833 8.3 51.05C6.53333 50.5167 5.03333 49.75 3.8 48.75C2.6 47.7167 1.7 46.4833 1.1 45.05C0.5 43.5833 0.2 41.9333 0.2 40.1C0.2 38.2667 0.55 36.5 1.25 34.8C1.95 33.0667 2.95 31.5 4.25 30.1C5.55 28.7 7.06667 27.5167 8.8 26.55C10.5667 25.55 12.4833 24.8667 14.55 24.5C13.2167 24 12.1167 23.3167 11.25 22.45C10.3833 21.5833 9.73333 20.5833 9.3 19.45C8.9 18.3167 8.7 17.1333 8.7 15.9C8.7 14.1333 8.95 12.4667 9.45 10.9C9.98333 9.3 10.7333 7.86666 11.7 6.6C12.7 5.3 13.8667 4.16666 15.2 3.2C16.5667 2.23333 18.0833 1.5 19.75 1C21.45 0.499997 23.25 0.249995 25.15 0.249995C27.15 0.249995 29.05 0.533329 30.85 1.1C32.65 1.66666 34.2333 2.45 35.6 3.45C36.9667 4.45 38.0333 5.61666 38.8 6.95C39.1333 7.45 39.2667 7.91666 39.2 8.35C39.1667 8.78333 38.9 9.16666 38.4 9.5C37.9667 9.9 37.4833 10.1 36.95 10.1C36.45 10.0667 35.9667 9.8 35.5 9.3C34.6667 8.26666 33.6667 7.4 32.5 6.7C31.3667 6 30.1 5.48333 28.7 5.15C27.3 4.78333 25.8 4.6 24.2 4.6C22.6 4.6 21.1333 4.88333 19.8 5.45C18.4667 6.01666 17.3 6.81666 16.3 7.85C15.3333 8.85 14.5833 10.0333 14.05 11.4C13.5167 12.7667 13.25 14.2333 13.25 15.8C13.25 17.2667 13.5833 18.5167 14.25 19.55C14.95 20.5833 15.9333 21.3833 17.2 21.95C18.5 22.5167 20.0333 22.8 21.8 22.8H28.1C28.6 22.8 28.9 22.95 29 23.25C29.1333 23.5167 29.0833 24.0333 28.85 24.8C28.65 25.5 28.3833 26.0167 28.05 26.35C27.75 26.65 27.3667 26.8 26.9 26.8H20.45C18.3167 26.8 16.3 27.1333 14.4 27.8C12.5 28.4667 10.8333 29.3833 9.4 30.55C8 31.7167 6.9 33.0833 6.1 34.65C5.3 36.2167 4.9 37.9 4.9 39.7C4.9 40.9667 5.1 42.1167 5.5 43.15C5.93333 44.1833 6.56667 45.0667 7.4 45.8C8.26667 46.5 9.33333 47.05 10.6 47.45C11.8667 47.8167 13.3333 48 15 48C15.5 48 15.85 48.2 16.05 48.6C16.25 48.9667 16.3167 49.4167 16.25 49.95C16.1833 50.45 16 50.8833 15.7 51.25C15.4 51.65 15 51.85 14.5 51.85ZM14.543 51.85C14.043 51.85 13.693 51.65 13.493 51.25C13.293 50.8833 13.2263 50.45 13.293 49.95C13.3596 49.4167 13.543 48.9667 13.843 48.6C14.143 48.2 14.543 48 15.043 48C16.943 48 18.893 47.6833 20.893 47.05C22.893 46.4167 24.943 45.45 27.043 44.15C29.143 42.85 31.2763 41.2333 33.443 39.3C35.5763 37.3667 37.7096 35.1 39.843 32.5C40.1763 32.0667 40.5596 31.95 40.993 32.15C41.4596 32.35 41.793 32.6833 41.993 33.15C42.2263 33.5833 42.193 34 41.893 34.4C39.693 37.3 37.443 39.85 35.143 42.05C32.8763 44.25 30.5763 46.0833 28.243 47.55C25.9096 48.9833 23.593 50.0667 21.293 50.8C18.993 51.5 16.743 51.85 14.543 51.85ZM41.793 51.85C40.6596 51.85 39.6763 51.55 38.843 50.95C38.0096 50.35 37.3596 49.5 36.893 48.4C36.4263 47.3 36.193 46 36.193 44.5C36.193 42.9667 36.4263 41.3167 36.893 39.55C37.3596 37.7833 38.0596 36.05 38.993 34.35C39.9263 32.65 41.0596 31.1 42.393 29.7C43.7263 28.3 45.2596 27.1833 46.993 26.35C48.7596 25.4833 50.693 25.05 52.793 25.05C54.0596 25.05 55.4263 25.2833 56.893 25.75C58.3596 26.1833 59.6763 26.8 60.843 27.6L59.943 31.05C58.3096 30.1833 56.8596 29.6333 55.593 29.4C54.3263 29.1333 53.1596 29 52.093 29C50.6596 29 49.343 29.3333 48.143 30C46.9763 30.6667 45.9263 31.55 44.993 32.65C44.093 33.7167 43.3263 34.9167 42.693 36.25C42.0596 37.55 41.5763 38.85 41.243 40.15C40.9096 41.45 40.743 42.6333 40.743 43.7C40.743 44.5333 40.843 45.2667 41.043 45.9C41.243 46.5333 41.5263 47.0167 41.893 47.35C42.293 47.6833 42.743 47.85 43.243 47.85C44.4763 47.85 45.8763 47.1833 47.443 45.85C49.0096 44.4833 50.6763 42.4833 52.443 39.85C54.243 37.2167 56.0763 34.0167 57.943 30.25L59.793 32.1C57.6263 36.5667 55.4763 40.2667 53.343 43.2C51.243 46.1 49.2263 48.2667 47.293 49.7C45.3596 51.1333 43.5263 51.85 41.793 51.85ZM57.193 51.85C55.693 51.85 54.5763 51.5667 53.843 51C53.143 50.4667 52.693 49.7833 52.493 48.95C52.3263 48.0833 52.3263 47.1833 52.493 46.25C52.6596 45.2833 52.893 44.4 53.193 43.6L58.793 26.85C59.0263 26.1833 59.293 25.75 59.593 25.55C59.9263 25.35 60.4096 25.25 61.043 25.25C62.0763 25.25 62.7263 25.4167 62.993 25.75C63.293 26.05 63.3263 26.5333 63.093 27.2L57.593 43.55C57.0263 45.2833 56.7596 46.4833 56.793 47.15C56.8596 47.7833 57.2763 48.1 58.043 48.1C58.5096 48.1 58.8596 48.3 59.093 48.7C59.3263 49.0667 59.4096 49.5 59.343 50C59.3096 50.4667 59.1096 50.8833 58.743 51.25C58.4096 51.65 57.893 51.85 57.193 51.85ZM57.2312 51.85C56.5979 51.85 56.1812 51.65 55.9812 51.25C55.7479 50.8833 55.6812 50.4667 55.7812 50C55.8812 49.5 56.1312 49.0667 56.5312 48.7C56.9312 48.3 57.4479 48.1 58.0812 48.1C59.0812 48.1 60.1646 47.7167 61.3312 46.95C62.4646 46.1833 63.7812 44.95 65.2812 43.25C66.7479 41.5167 68.4813 39.2333 70.4813 36.4C72.4813 33.5333 74.7979 30.0167 77.4313 25.85C77.6979 25.4167 78.0646 25.25 78.5313 25.35C79.0313 25.45 79.4313 25.6833 79.7313 26.05C80.0646 26.4167 80.0979 26.8167 79.8313 27.25C77.1979 31.85 74.8313 35.7333 72.7313 38.9C70.6313 42.0333 68.7146 44.55 66.9813 46.45C65.2479 48.35 63.5979 49.7333 62.0312 50.6C60.4646 51.4333 58.8646 51.85 57.2312 51.85ZM84.6813 51.85C83.9813 51.85 83.2813 51.8 82.5813 51.7C81.8813 51.6 81.1313 51.5333 80.3313 51.5C79.5646 51.4667 78.6813 51.55 77.6813 51.75L78.2813 50.6C79.5146 50.0667 80.6146 49.6167 81.5813 49.25C82.5479 48.8833 83.3646 48.6 84.0313 48.4C84.7313 48.2 85.2479 48.1 85.5813 48.1C85.8813 48.1 86.0813 48.3 86.1813 48.7C86.2813 49.0667 86.2813 49.5 86.1813 50C86.1146 50.4667 85.9479 50.8833 85.6813 51.25C85.4146 51.65 85.0813 51.85 84.6813 51.85ZM76.3313 51.95C74.6979 51.95 73.2146 51.7 71.8813 51.2C70.5813 50.7 69.6813 50.1667 69.1813 49.6C68.6813 49.0667 68.4479 48.6167 68.4813 48.25C68.5146 47.85 68.7479 47.45 69.1813 47.05C69.5813 46.65 69.9313 46.4667 70.2313 46.5C70.5646 46.5333 70.9979 46.7333 71.5313 47.1C72.0979 47.4667 72.7646 47.8 73.5313 48.1C74.3313 48.3667 75.1813 48.5 76.0813 48.5C77.8146 48.5 79.1646 48.0833 80.1313 47.25C81.0979 46.4167 81.5813 45.2667 81.5813 43.8C81.5813 42.9667 81.4479 42.1333 81.1813 41.3C80.9146 40.4333 80.5646 39.5667 80.1313 38.7C79.6979 37.8333 79.2479 36.95 78.7813 36.05C78.3146 35.15 77.8646 34.2167 77.4313 33.25C76.9979 32.2833 76.6479 31.2833 76.3813 30.25C76.1146 29.1833 75.9813 28.0833 75.9813 26.95C75.9813 25.1833 76.3813 23.9333 77.1813 23.2C78.0146 22.4333 78.8813 22.05 79.7813 22.05C80.5479 22.05 81.1313 22.2667 81.5313 22.7C81.9646 23.1 82.1813 23.6167 82.1813 24.25C82.1813 24.9167 81.9146 25.6333 81.3813 26.4C80.8813 27.1667 80.3479 27.8833 79.7813 28.55C79.7813 29.35 79.9313 30.15 80.2312 30.95C80.5313 31.7167 80.9146 32.5167 81.3813 33.35C81.8479 34.15 82.3313 34.9667 82.8313 35.8C83.3646 36.6333 83.8646 37.5 84.3313 38.4C84.7979 39.2667 85.1813 40.1667 85.4813 41.1C85.7813 42 85.9313 42.95 85.9313 43.95C85.9313 46.35 85.0646 48.2833 83.3313 49.75C81.6313 51.2167 79.2979 51.95 76.3313 51.95ZM84.6715 51.85C84.2048 51.85 83.8548 51.65 83.6215 51.25C83.3882 50.8833 83.3048 50.4667 83.3715 50C83.4048 49.5 83.6048 49.0667 83.9715 48.7C84.3382 48.3 84.8715 48.1 85.5715 48.1C86.3715 48.1 87.2882 47.7 88.3215 46.9C89.3215 46.1 90.5048 44.85 91.8715 43.15C93.2382 41.4167 94.8548 39.1667 96.7215 36.4C98.5882 33.6 100.771 30.2167 103.271 26.25C103.571 25.7833 103.955 25.5833 104.421 25.65C104.921 25.7167 105.321 25.9333 105.621 26.3C105.921 26.6667 105.938 27.0667 105.671 27.5C102.838 32.3 100.388 36.2833 98.3215 39.45C96.2882 42.5833 94.5048 45.0667 92.9715 46.9C91.4382 48.7 90.0215 49.9833 88.7215 50.75C87.3882 51.4833 86.0382 51.85 84.6715 51.85ZM114.371 50.65C115.038 50.1833 115.705 49.75 116.371 49.35C117.038 48.9167 117.671 48.5167 118.271 48.15C118.905 47.75 119.505 47.4 120.071 47.1C120.638 46.7667 121.155 46.4833 121.621 46.25C122.155 45.9833 122.571 45.95 122.871 46.15C123.205 46.35 123.421 46.6833 123.521 47.15C123.655 47.5833 123.655 48.0167 123.521 48.45C123.388 48.8833 123.155 49.2167 122.821 49.45C122.155 49.8167 121.455 50.2333 120.721 50.7C119.988 51.1333 119.221 51.5833 118.421 52.05C117.655 52.55 116.871 53.05 116.071 53.55C115.305 54.0833 114.521 54.6167 113.721 55.15L114.371 50.65ZM99.7715 76.95C98.0048 76.95 96.5548 76.45 95.4215 75.45C94.3215 74.4833 93.7715 73.2167 93.7715 71.65C93.7715 70.4833 93.9882 69.3167 94.4215 68.15C94.8882 67.0167 95.5548 65.8667 96.4215 64.7C97.2882 63.5333 98.3715 62.3333 99.6715 61.1C101.005 59.9 102.538 58.6333 104.271 57.3C105.138 56.6667 105.955 56.0667 106.721 55.5C107.521 54.9333 108.321 54.3667 109.121 53.8C109.921 53.2667 110.755 52.7167 111.621 52.15L115.071 41.5C114.038 43.1333 112.971 44.5833 111.871 45.85C110.805 47.1167 109.705 48.2 108.571 49.1C107.438 49.9667 106.305 50.6167 105.171 51.05C104.038 51.5167 102.888 51.75 101.721 51.75C100.188 51.75 98.9882 51.3833 98.1215 50.65C97.2882 49.8833 96.8382 48.7667 96.7715 47.3C96.7048 45.8 97.0215 43.9833 97.7215 41.85L102.721 26.85C102.955 26.1833 103.221 25.75 103.521 25.55C103.855 25.35 104.338 25.25 104.971 25.25C106.005 25.25 106.655 25.4167 106.921 25.75C107.221 26.05 107.255 26.5333 107.021 27.2L101.721 43C101.421 43.8333 101.221 44.6167 101.121 45.35C101.055 46.0833 101.171 46.6667 101.471 47.1C101.805 47.5333 102.421 47.75 103.321 47.75C104.488 47.75 105.755 47.25 107.121 46.25C108.488 45.25 109.888 43.85 111.321 42.05C112.788 40.25 114.221 38.1333 115.621 35.7C117.021 33.2333 118.321 30.55 119.521 27.65L119.771 26.85C120.005 26.1833 120.271 25.75 120.571 25.55C120.905 25.35 121.388 25.25 122.021 25.25C123.055 25.25 123.705 25.4167 123.971 25.75C124.271 26.05 124.305 26.5333 124.071 27.2L112.271 63.5C111.505 65.9 110.688 67.95 109.821 69.65C108.988 71.35 108.088 72.7333 107.121 73.8C106.155 74.9 105.055 75.7 103.821 76.2C102.621 76.7 101.271 76.95 99.7715 76.95ZM100.521 73.1C101.521 73.1 102.455 72.7667 103.321 72.1C104.188 71.4333 105.005 70.3833 105.771 68.95C106.538 67.5167 107.288 65.6333 108.021 63.3L109.871 57.65C109.405 57.95 108.938 58.2667 108.471 58.6C108.005 58.9333 107.538 59.2667 107.071 59.6C106.605 59.9333 106.138 60.2833 105.671 60.65C104.338 61.75 103.188 62.7667 102.221 63.7C101.288 64.6667 100.521 65.5667 99.9215 66.4C99.3548 67.2333 98.9215 68.0167 98.6215 68.75C98.3548 69.5167 98.2215 70.25 98.2215 70.95C98.2215 71.35 98.3048 71.7167 98.4715 72.05C98.6382 72.3833 98.8882 72.6333 99.2215 72.8C99.5882 73 100.021 73.1 100.521 73.1Z" fill="black"/>
<path d="M154.464 51.85C152.997 51.85 151.697 51.4833 150.564 50.75C149.464 50.0167 148.547 49.0667 147.814 47.9C147.114 46.7 146.614 45.45 146.314 44.15C146.18 43.4833 146.18 42.9167 146.314 42.45C146.48 41.95 146.93 41.6167 147.664 41.45C148.364 41.2833 148.897 41.3333 149.264 41.6C149.63 41.8333 149.897 42.2333 150.064 42.8C150.397 43.8667 150.764 44.7667 151.164 45.5C151.597 46.2 152.08 46.7333 152.614 47.1C153.18 47.4333 153.814 47.6 154.514 47.6C155.614 47.6 156.547 47.1667 157.314 46.3C158.08 45.4333 158.847 43.8333 159.614 41.5L171.364 5.1H165.214C163.514 5.1 161.98 5.3 160.614 5.7C159.247 6.1 158.047 6.75 157.014 7.65C155.98 8.51667 155.114 9.71667 154.414 11.25C154.114 11.95 153.747 12.3833 153.314 12.55C152.88 12.7167 152.364 12.75 151.764 12.65C151.264 12.55 150.897 12.3333 150.664 12C150.43 11.6667 150.43 11.15 150.664 10.45C151.164 9.05 151.847 7.78333 152.714 6.65C153.58 5.51666 154.647 4.53333 155.914 3.7C157.18 2.86666 158.664 2.23333 160.364 1.8C162.064 1.33333 163.98 1.1 166.114 1.1H191.814C192.314 1.1 192.614 1.25 192.714 1.55C192.847 1.81666 192.78 2.33333 192.514 3.1C192.28 3.83333 192.014 4.35 191.714 4.65C191.414 4.95 191.014 5.1 190.514 5.1H175.864L164.014 41.85C163.414 43.7167 162.664 45.4167 161.764 46.95C160.864 48.45 159.814 49.65 158.614 50.55C157.414 51.4167 156.03 51.85 154.464 51.85ZM170.593 51.85C169.959 51.85 169.543 51.65 169.343 51.25C169.109 50.8833 169.043 50.4667 169.143 50C169.243 49.5 169.493 49.0667 169.893 48.7C170.293 48.3 170.809 48.1 171.443 48.1C172.609 48.1 173.826 47.75 175.093 47.05C176.359 46.35 177.709 45.25 179.143 43.75C180.576 42.25 182.093 40.2833 183.693 37.85C185.293 35.4167 187.009 32.4667 188.843 29L191.593 30.35C189.593 34.3833 187.709 37.7833 185.943 40.55C184.176 43.2833 182.443 45.4833 180.743 47.15C179.076 48.8167 177.409 50.0167 175.743 50.75C174.076 51.4833 172.359 51.85 170.593 51.85ZM199.643 51.85C198.176 51.85 197.093 51.5833 196.393 51.05C195.693 50.5167 195.243 49.8333 195.043 49C194.843 48.1667 194.809 47.3167 194.943 46.45C195.109 45.55 195.309 44.7667 195.543 44.1C195.676 43.7 195.926 43.05 196.293 42.15C196.659 41.25 197.076 40.2333 197.543 39.1C198.009 37.9333 198.459 36.75 198.893 35.55C199.359 34.35 199.743 33.25 200.043 32.25C200.309 31.25 200.359 30.5667 200.193 30.2C200.059 29.8 199.643 29.6 198.943 29.6C198.176 29.6 197.359 29.7667 196.493 30.1C195.626 30.4 194.726 30.7167 193.793 31.05C192.859 31.35 191.876 31.5 190.843 31.5C190.243 31.5 189.726 31.25 189.293 30.75C188.859 30.25 188.509 29.6167 188.243 28.85C188.009 28.05 187.893 27.2167 187.893 26.35C187.893 25.65 188.009 25 188.243 24.4C188.476 23.7667 188.843 23.25 189.343 22.85C189.876 22.45 190.543 22.25 191.343 22.25C192.009 22.25 192.543 22.4667 192.943 22.9C193.343 23.3333 193.543 23.8833 193.543 24.55C193.543 24.9833 193.476 25.4667 193.343 26C193.243 26.5 193.009 27.0167 192.643 27.55C192.943 27.55 193.376 27.45 193.943 27.25C194.543 27.0167 195.226 26.75 195.993 26.45C196.793 26.15 197.626 25.9 198.493 25.7C199.393 25.4667 200.276 25.35 201.143 25.35C202.176 25.35 202.993 25.6 203.593 26.1C204.226 26.6 204.609 27.3667 204.743 28.4C204.876 29.4 204.726 30.7167 204.293 32.35C204.059 33.2833 203.709 34.3667 203.243 35.6C202.809 36.8 202.343 38.0167 201.843 39.25C201.376 40.45 200.943 41.55 200.543 42.55C200.176 43.5167 199.926 44.2333 199.793 44.7C199.493 45.7 199.359 46.5167 199.393 47.15C199.426 47.7833 199.826 48.1 200.593 48.1C201.059 48.1 201.393 48.3 201.593 48.7C201.826 49.0667 201.909 49.5 201.843 50C201.809 50.4667 201.609 50.8833 201.243 51.25C200.876 51.65 200.343 51.85 199.643 51.85ZM199.662 51.85C199.195 51.85 198.845 51.65 198.612 51.25C198.378 50.8833 198.295 50.4667 198.362 50C198.395 49.5 198.595 49.0667 198.962 48.7C199.328 48.3 199.862 48.1 200.562 48.1C201.428 48.1 202.345 47.7833 203.312 47.15C204.278 46.5167 205.278 45.6333 206.312 44.5C207.312 43.3667 208.345 42.0333 209.412 40.5C210.478 38.9667 211.562 37.3 212.662 35.5C212.928 35.0667 213.295 34.8833 213.762 34.95C214.228 35.0167 214.612 35.2333 214.912 35.6C215.212 35.9333 215.228 36.3167 214.962 36.75C213.528 39.25 212.162 41.45 210.862 43.35C209.595 45.25 208.362 46.8333 207.162 48.1C205.928 49.3333 204.712 50.2667 203.512 50.9C202.278 51.5333 200.995 51.85 199.662 51.85ZM216.061 51.85C214.927 51.85 213.944 51.55 213.111 50.95C212.277 50.35 211.627 49.5 211.161 48.4C210.694 47.3 210.461 46 210.461 44.5C210.461 42.9667 210.694 41.3167 211.161 39.55C211.627 37.7833 212.327 36.05 213.261 34.35C214.194 32.65 215.327 31.1 216.661 29.7C217.994 28.3 219.527 27.1833 221.261 26.35C223.027 25.4833 224.961 25.05 227.061 25.05C228.327 25.05 229.694 25.2833 231.161 25.75C232.627 26.1833 233.944 26.8 235.111 27.6L234.211 31.05C232.577 30.1833 231.127 29.6333 229.861 29.4C228.594 29.1333 227.427 29 226.361 29C224.927 29 223.611 29.3333 222.411 30C221.244 30.6667 220.194 31.55 219.261 32.65C218.361 33.7167 217.594 34.9167 216.961 36.25C216.327 37.55 215.844 38.85 215.511 40.15C215.177 41.45 215.011 42.6333 215.011 43.7C215.011 44.5333 215.111 45.2667 215.311 45.9C215.511 46.5333 215.794 47.0167 216.161 47.35C216.561 47.6833 217.011 47.85 217.511 47.85C218.744 47.85 220.144 47.1833 221.711 45.85C223.277 44.4833 224.944 42.4833 226.711 39.85C228.511 37.2167 230.344 34.0167 232.211 30.25L234.061 32.1C231.894 36.5667 229.744 40.2667 227.611 43.2C225.511 46.1 223.494 48.2667 221.561 49.7C219.627 51.1333 217.794 51.85 216.061 51.85ZM231.461 51.85C229.961 51.85 228.844 51.5667 228.111 51C227.411 50.4667 226.961 49.7833 226.761 48.95C226.594 48.0833 226.594 47.1833 226.761 46.25C226.927 45.2833 227.161 44.4 227.461 43.6L233.061 26.85C233.294 26.1833 233.561 25.75 233.861 25.55C234.194 25.35 234.677 25.25 235.311 25.25C236.344 25.25 236.994 25.4167 237.261 25.75C237.561 26.05 237.594 26.5333 237.361 27.2L231.861 43.55C231.294 45.2833 231.027 46.4833 231.061 47.15C231.127 47.7833 231.544 48.1 232.311 48.1C232.777 48.1 233.127 48.3 233.361 48.7C233.594 49.0667 233.677 49.5 233.611 50C233.577 50.4667 233.377 50.8833 233.011 51.25C232.677 51.65 232.161 51.85 231.461 51.85ZM231.449 51.85C230.982 51.85 230.632 51.65 230.399 51.25C230.165 50.8833 230.082 50.4667 230.149 50C230.182 49.5 230.382 49.0667 230.749 48.7C231.115 48.3 231.649 48.1 232.349 48.1C233.215 48.1 234.132 47.7833 235.099 47.15C236.065 46.5167 237.065 45.6333 238.099 44.5C239.099 43.3667 240.132 42.0333 241.199 40.5C242.265 38.9667 243.349 37.3 244.449 35.5C244.715 35.0667 245.082 34.8833 245.549 34.95C246.015 35.0167 246.399 35.2333 246.699 35.6C246.999 35.9333 247.015 36.3167 246.749 36.75C245.315 39.25 243.949 41.45 242.649 43.35C241.382 45.25 240.149 46.8333 238.949 48.1C237.715 49.3333 236.499 50.2667 235.299 50.9C234.065 51.5333 232.782 51.85 231.449 51.85ZM253.249 51.85C249.849 51.85 247.282 50.9 245.549 49C243.815 47.0667 242.949 44.5833 242.949 41.55C242.949 39.7833 243.265 37.95 243.899 36.05C244.565 34.1167 245.532 32.3167 246.799 30.65C248.065 28.9833 249.632 27.6333 251.499 26.6C253.399 25.5667 255.565 25.05 257.999 25.05C259.965 25.05 261.615 25.35 262.949 25.95C264.315 26.55 265.499 27.4333 266.499 28.6C266.999 29.2 267.165 29.7167 266.999 30.15C266.865 30.55 266.599 30.9333 266.199 31.3C265.765 31.6333 265.332 31.8333 264.899 31.9C264.465 31.9333 264.015 31.7 263.549 31.2C262.915 30.5 262.132 29.9667 261.199 29.6C260.265 29.2333 259.049 29.05 257.549 29.05C255.882 29.05 254.415 29.4667 253.149 30.3C251.882 31.1333 250.815 32.2167 249.949 33.55C249.115 34.85 248.482 36.2333 248.049 37.7C247.649 39.1333 247.449 40.4833 247.449 41.75C247.449 42.8167 247.649 43.8333 248.049 44.8C248.482 45.7667 249.165 46.55 250.099 47.15C251.032 47.7167 252.249 48 253.749 48C254.215 48 254.532 48.2 254.699 48.6C254.899 48.9667 254.965 49.4167 254.899 49.95C254.832 50.45 254.649 50.8833 254.349 51.25C254.082 51.65 253.715 51.85 253.249 51.85ZM253.257 51.85C252.79 51.85 252.473 51.65 252.307 51.25C252.107 50.8833 252.04 50.45 252.107 49.95C252.14 49.4167 252.307 48.9667 252.607 48.6C252.907 48.2 253.29 48 253.757 48C256.09 48 258.54 47.2333 261.107 45.7C263.673 44.1333 266.19 42 268.657 39.3C271.157 36.5667 273.457 33.45 275.557 29.95C275.957 29.2833 276.357 29.0167 276.757 29.15C277.19 29.2833 277.49 29.6167 277.657 30.15C277.857 30.65 277.79 31.1833 277.457 31.75C275.657 34.85 273.757 37.6333 271.757 40.1C269.79 42.5667 267.773 44.6833 265.707 46.45C263.607 48.1833 261.507 49.5167 259.407 50.45C257.307 51.3833 255.257 51.85 253.257 51.85ZM270.757 51.75C270.223 51.75 269.723 51.6333 269.257 51.4C268.79 51.1667 268.657 50.7333 268.857 50.1L281.557 11.2C282.39 8.6 283.273 6.48333 284.207 4.85C285.14 3.18333 286.173 1.96666 287.307 1.2C288.473 0.433331 289.757 0.0499973 291.157 0.0499973C292.257 0.0499973 293.19 0.299997 293.957 0.799997C294.757 1.3 295.373 2 295.807 2.9C296.273 3.76666 296.507 4.76666 296.507 5.9C296.507 6.9 296.34 7.95 296.007 9.05C295.707 10.15 295.273 11.3 294.707 12.5C294.14 13.7 293.423 14.9333 292.557 16.2C291.69 17.4333 290.69 18.7 289.557 20C288.457 21.3 287.223 22.6 285.857 23.9C284.523 25.2 283.073 26.5 281.507 27.8C279.94 29.0667 278.257 30.3167 276.457 31.55L277.457 27.4C278.657 26.4667 279.807 25.4833 280.907 24.45C282.007 23.4167 283.04 22.35 284.007 21.25C285.007 20.15 285.923 19.05 286.757 17.95C287.623 16.85 288.407 15.7667 289.107 14.7C289.807 13.6333 290.39 12.6 290.857 11.6C291.323 10.5667 291.69 9.61666 291.957 8.75C292.223 7.85 292.357 7.03333 292.357 6.3C292.357 5.83333 292.29 5.43333 292.157 5.1C292.023 4.76666 291.823 4.51667 291.557 4.35C291.29 4.15 290.957 4.05 290.557 4.05C290.023 4.05 289.507 4.28333 289.007 4.75C288.507 5.18333 287.99 6 287.457 7.2C286.923 8.4 286.29 10.1167 285.557 12.35L273.107 50.45C272.973 50.8833 272.74 51.2 272.407 51.4C272.073 51.6333 271.523 51.75 270.757 51.75ZM284.707 51.95C283.707 51.95 282.823 51.7667 282.057 51.4C281.29 51.0667 280.59 50.5 279.957 49.7C279.323 48.8667 278.707 47.75 278.107 46.35C277.507 44.95 276.873 43.2 276.207 41.1H275.957L276.957 38.55C278.823 38.05 280.507 37.4833 282.007 36.85C283.507 36.1833 284.79 35.4833 285.857 34.75C286.957 33.9833 287.79 33.2333 288.357 32.5C288.957 31.7333 289.257 31 289.257 30.3C289.257 29.9 289.14 29.6 288.907 29.4C288.673 29.1667 288.323 29.05 287.857 29.05C286.857 29.05 285.757 29.5 284.557 30.4C283.357 31.3 282.09 32.5167 280.757 34.05C279.457 35.5833 278.123 37.3 276.757 39.2L275.507 37.7C276.707 35.1667 278.09 32.9667 279.657 31.1C281.223 29.2 282.84 27.7333 284.507 26.7C286.207 25.6333 287.823 25.1 289.357 25.1C290.59 25.1 291.573 25.5167 292.307 26.35C293.073 27.1833 293.457 28.2333 293.457 29.5C293.457 30.3667 293.257 31.25 292.857 32.15C292.457 33.0167 291.873 33.8833 291.107 34.75C290.34 35.5833 289.423 36.3833 288.357 37.15C287.29 37.9167 286.073 38.6167 284.707 39.25C283.34 39.85 281.873 40.3667 280.307 40.8C280.84 42.3 281.323 43.5333 281.757 44.5C282.19 45.4333 282.59 46.1667 282.957 46.7C283.323 47.2333 283.69 47.6 284.057 47.8C284.457 48 284.873 48.1 285.307 48.1C285.873 48.1 286.473 47.8833 287.107 47.45C287.74 46.9833 288.607 46.15 289.707 44.95C290.073 44.5167 290.44 44.3167 290.807 44.35C291.173 44.35 291.523 44.5 291.857 44.8C292.223 45.1333 292.44 45.4667 292.507 45.8C292.573 46.1 292.473 46.45 292.207 46.85C290.84 48.6833 289.49 50 288.157 50.8C286.857 51.5667 285.707 51.95 284.707 51.95Z" fill="#F08080"/>
</svg>
